{
    "asset" : {
        "generator" : "Khronos glTF Blender I/O v1.7.33",
        "version" : "2.0"
    },
    "scene" : 0,
    "scenes" : [
        {
            "name" : "Scene",
            "nodes" : [
                0,
                1
            ]
        }
    ],
    "nodes" : [
        {
            "mesh" : 0,
            "name" : "Towers",
            "scale" : [
                0.40983355045318604,
                1.2756788730621338,
                0.4192682206630707
            ],
            "translation" : [
                -1.9400838613510132,
                1.2741432189941406,
                1.8838553428649902
            ]
        },
        {
            "mesh" : 1,
            "name" : "Doors",
            "scale" : [
                1,
                0.7956476807594299,
                0.04284137487411499
            ],
            "translation" : [
                0,
                0.8027422428131104,
                1.8808640241622925
            ]
        }
    ],
    "materials" : [
        {
            "doubleSided" : true,
            "name" : "Material.001",
            "pbrMetallicRoughness" : {
                "baseColorFactor" : [
                    1,
                    1,
                    1,
                    0.5590909123420715
                ],
                "baseColorTexture" : {
                    "index" : 0
                },
                "metallicFactor" : 0.15909090638160706,
                "roughnessFactor" : 0.8818181753158569
            }
        },
        {
            "doubleSided" : true,
            "name" : "Material.002",
            "pbrMetallicRoughness" : {
                "baseColorTexture" : {
                    "index" : 1
                },
                "metallicFactor" : 0,
                "roughnessFactor" : 0.5
            }
        }
    ],
    "meshes" : [
        {
            "name" : "Cube.001",
            "primitives" : [
                {
                    "attributes" : {
                        "POSITION" : 0,
                        "NORMAL" : 1,
                        "TEXCOORD_0" : 2
                    },
                    "indices" : 3,
                    "material" : 0
                }
            ]
        },
        {
            "name" : "Cube.004",
            "primitives" : [
                {
                    "attributes" : {
                        "POSITION" : 4,
                        "NORMAL" : 5,
                        "TEXCOORD_0" : 6
                    },
                    "indices" : 7,
                    "material" : 1
                }
            ]
        }
    ],
    "textures" : [
        {
            "sampler" : 0,
            "source" : 0
        },
        {
            "sampler" : 1,
            "source" : 1
        }
    ],
    "images" : [
        {
            "bufferView" : 4,
            "mimeType" : "image/png",
            "name" : "cobblestone-wall-1"
        },
        {
            "bufferView" : 9,
            "mimeType" : "image/png",
            "name" : "castle-gate-wood2"
        }
    ],
    "accessors" : [
        {
            "bufferView" : 0,
            "componentType" : 5126,
            "count" : 534,
            "max" : [
                10.467666625976562,
                1,
                1.0000004768371582
            ],
            "min" : [
                -1,
                -1,
                -9.986396789550781
            ],
            "type" : "VEC3"
        },
        {
            "bufferView" : 1,
            "componentType" : 5126,
            "count" : 534,
            "type" : "VEC3"
        },
        {
            "bufferView" : 2,
            "componentType" : 5126,
            "count" : 534,
            "type" : "VEC2"
        },
        {
            "bufferView" : 3,
            "componentType" : 5123,
            "count" : 1014,
            "type" : "SCALAR"
        },
        {
            "bufferView" : 5,
            "componentType" : 5126,
            "count" : 48,
            "max" : [
                1,
                1,
                1
            ],
            "min" : [
                -1,
                -1,
                -88.80595397949219
            ],
            "type" : "VEC3"
        },
        {
            "bufferView" : 6,
            "componentType" : 5126,
            "count" : 48,
            "type" : "VEC3"
        },
        {
            "bufferView" : 7,
            "componentType" : 5126,
            "count" : 48,
            "type" : "VEC2"
        },
        {
            "bufferView" : 8,
            "componentType" : 5123,
            "count" : 72,
            "type" : "SCALAR"
        }
    ],
    "bufferViews" : [
        {
            "buffer" : 0,
            "byteLength" : 6408,
            "byteOffset" : 0
        },
        {
            "buffer" : 0,
            "byteLength" : 6408,
            "byteOffset" : 6408
        },
        {
            "buffer" : 0,
            "byteLength" : 4272,
            "byteOffset" : 12816
        },
        {
            "buffer" : 0,
            "byteLength" : 2028,
            "byteOffset" : 17088
        },
        {
            "buffer" : 0,
            "byteLength" : 1400374,
            "byteOffset" : 19116
        },
        {
            "buffer" : 0,
            "byteLength" : 576,
            "byteOffset" : 1419492
        },
        {
            "buffer" : 0,
            "byteLength" : 576,
            "byteOffset" : 1420068
        },
        {
            "buffer" : 0,
            "byteLength" : 384,
            "byteOffset" : 1420644
        },
        {
            "buffer" : 0,
            "byteLength" : 144,
            "byteOffset" : 1421028
        },
        {
            "buffer" : 0,
            "byteLength" : 237152,
            "byteOffset" : 1421172
        }
    ],
    "samplers" : [
        {
            "magFilter" : 9729,
            "minFilter" : 9987,
            "wrapS" : 33071,
            "wrapT" : 33071
        },
        {
            "magFilter" : 9729,
            "minFilter" : 9987
        }
    ],
    "buffers" : [
        {
            "byteLength" : 1658324,
            "uri" : "data:application/octet-stream;base64,"
        }
    ]
}
